PathFileType	4	(X/Y/Z)	Patient4_TMGait_0pt4_03_left_36.trc.trc
DataRate	CameraRate	NumFrames	NumMarkers	Units	OrigDataRate	OrigDataStartFrame	OrigNumFrames
72.164948453608	72.164948453608	4	33	mm	72.164948453608	1	       141
Frame#	Time	Sacral			L.Shoulder			Chest			R.Shoulder			Neck			R.ASIS			L.ASIS			R.Thigh.Superior			R.Thigh.Lateral			R.Thigh.Inferior			R.Patella			L.Thigh.Superior			L.Thigh.Lateral			L.Thigh.Inferior			L.Patella			L.Shank.Superior			L.Shank.Lateral			L.Shank.Inferior			R.Shank.Superior			R.Shank.Lateral			R.Shank.Inferior			R.Heel			R.Midfoot.Superior			R.Midfoot.Lateral			R.Toe			L.Heel			L.Midfoot.Lateral			L.Midfoot.Superior			L.Toe			L.Elbow			L.Wrist			R.Elbow			R.Wrist			
		X1	Y1	Z1	X2	Y2	Z2	X3	Y3	Z3	X4	Y4	Z4	X5	Y5	Z5	X6	Y6	Z6	X7	Y7	Z7	X8	Y8	Z8	X9	Y9	Z9	X10	Y10	Z10	X11	Y11	Z11	X12	Y12	Z12	X13	Y13	Z13	X14	Y14	Z14	X15	Y15	Z15	X16	Y16	Z16	X17	Y17	Z17	X18	Y18	Z18	X19	Y19	Z19	X20	Y20	Z20	X21	Y21	Z21	X22	Y22	Z22	X23	Y23	Z23	X24	Y24	Z24	X25	Y25	Z25	X26	Y26	Z26	X27	Y27	Z27	X28	Y28	Z28	X29	Y29	Z29	X30	Y30	Z30	X31	Y31	Z31	X32	Y32	Z32	X33	Y33	Z33	

1	47.650000000000	869.287717173750	1007.256263716558	514.981332553652	1031.607581640669	1437.067974265292	321.404162540344	1149.823500272246	1369.713277445048	472.801526138280	1081.872420775238	1442.871395805656	654.109681769095	1036.234152468175	1498.850436150001	478.231698352992	1108.805656653732	945.329924120241	610.729885858760	1070.391515478944	968.633737346596	340.073674650698	1142.595571663679	741.381226604346	580.951023465800	1061.469588842821	633.090750508189	644.397928860156	1133.796684796060	580.325369574998	560.460773622056	1132.464066500111	492.351106358052	565.798935145364	1156.449897852677	787.396251177361	355.825566238914	1108.487714751894	661.971865219919	274.935016248001	1218.395453635326	601.117499573853	322.963081443804	1232.110875047369	512.340974445692	311.191170007003	1166.227102484815	443.693066563317	306.927733846036	1022.603779993317	400.100930098421	264.851797815725	1014.976861248775	268.532754937487	316.964926904137	1102.758682129464	404.157063270190	572.849137898418	1032.428644140169	301.582953482424	638.399213886454	1067.021787299103	206.550833175094	570.084090314355	928.008081166933	43.480278787473	547.293262831537	1101.876079670183	96.593723882955	571.525782330639	1016.504575699791	37.470140191658	616.298590340698	1223.865897580425	42.167336323769	589.982202539073	827.669920723064	203.923004802145	362.501738033446	880.896322022630	155.881304881195	280.271035548699	987.915862974997	162.850584910815	297.587028448725	1062.541843213486	48.330250502593	266.967304827718	967.801173113470	1088.379606931990	209.112521921198	1052.556339151317	843.059117724164	162.637510565540	1091.295291745990	1119.792574746295	822.125832730200	1293.257775462894	963.807765898804	782.138044595462	
2	47.663857142857	868.661854701367	1008.210475877479	516.825469770789	1030.369511858493	1437.908344132659	323.251248116690	1149.476819012180	1370.191326252284	473.753771117014	1082.956208390513	1443.366596069972	655.544040848813	1035.862803873156	1499.503542017137	480.099312490646	1107.779684061017	945.242869514225	611.783672566745	1068.791852387594	969.565907726656	341.221354444126	1139.619906480321	741.023547999749	581.895973605657	1057.347207879253	633.393742255697	645.306663212474	1129.194271035884	579.971065627747	561.527693471984	1127.137516156178	492.336136449518	566.812847894359	1155.819991647246	790.252615477307	356.520625150736	1109.172381505124	664.336442657513	275.214697827598	1219.961277993238	604.986114255938	322.835473839541	1235.300270531350	517.055319643326	310.918043067925	1172.261609770806	446.880102714679	306.531380794140	1030.999877971372	396.904707324126	264.961453443035	1030.231271360278	265.124106868726	316.008572635716	1097.285951296114	404.310408569950	573.739500964028	1026.501982405255	301.799629032018	638.960574148248	1061.343328865636	206.733858908548	570.657341286724	922.172580876166	43.588960903499	547.429064441653	1096.075211392031	96.669074201466	571.733813472502	1010.590696424323	37.453367907740	616.327318028410	1217.950376846757	42.139893869494	590.079467575710	847.585144482655	190.538300366216	362.321141737725	902.101466620042	146.717229737402	279.015820030656	1008.309267760185	159.137227343204	295.642737142452	1088.274069352269	49.806551547785	262.665743811264	961.767287953511	1090.264010022556	211.396638379381	1038.436471815206	842.980027554485	164.766327095537	1099.624358108081	1120.248419494841	822.268045775667	1304.798340837547	970.822676706206	778.097765445747	
3	47.677714285714	868.029108499161	1009.123343244537	518.606547525880	1029.153456547646	1438.709829379474	325.066240390151	1149.133936292162	1370.623758020284	474.684439115389	1084.015814452187	1443.796557198264	656.955179095888	1035.495053724102	1500.111483818777	481.944792251733	1106.776292748956	945.152185808514	612.774329943820	1067.218119458610	970.435654772385	342.314985984822	1136.633244660023	740.649949073474	582.756587417062	1053.277656141129	633.673526662421	646.187284102211	1124.607178672041	579.602375171032	562.543771697087	1121.827709571681	492.301842649636	567.797309823163	1155.108480762948	792.901678637711	357.186014009802	1109.711283011458	666.516271378406	275.498898413066	1221.262502656495	608.560887674051	322.827763962401	1238.177885663471	521.542271817220	310.749739270528	1178.052122244778	449.914347113069	306.178972645070	1039.358090153637	393.445480418989	265.016350883629	1045.600897585492	261.557415130363	314.968542323035	1091.832316104260	404.440756045299	574.602627643072	1020.608604878532	301.995745863018	639.505275527517	1055.678935650471	206.901170420294	571.212750803967	916.351452106304	43.687143441614	547.556580268646	1090.291577805775	96.738181896699	571.931002517196	1004.698204659696	37.437906325578	616.356398489552	1212.054484487659	42.113300538348	590.173359232725	867.885705952054	176.882889110253	361.941390855834	923.674965044572	137.374205040929	277.590779169319	1028.947605932040	155.328035332711	293.597934008161	1114.260257915925	51.367710358962	258.308937517509	955.782767061773	1092.120761710828	213.650714260471	1024.493876220369	842.938039323425	166.914512638347	1107.834312478321	1120.618392335434	822.314867800991	1316.178140333700	977.761523378455	773.999865579360	
4	47.691571428571	867.382204341364	1009.955511391897	520.254170182226	1027.992818730018	1439.432378724823	326.796055428155	1148.801763983640	1370.966771369107	475.559108687100	1085.021934021138	1444.104764836298	658.301552436272	1035.138302473146	1500.632937563518	483.722482309030	1105.817111832891	945.052073460852	613.642100911251	1065.698773239012	971.184067533839	343.296950463097	1133.654411369774	740.247849066545	583.465388311963	1049.325312057004	633.909136891206	647.005264338937	1120.076939363432	579.208122210330	563.458002709778	1116.580709954820	492.231450698280	568.711641511735	1154.235787822675	795.144914211014	357.788698613107	1109.947708917511	668.343412639917	275.775390796747	1222.050946961525	611.571991240469	323.014849338765	1240.448373896346	525.586798545207	310.766952893664	1183.342928101077	452.664845376495	305.909884567586	1047.598089814132	389.580129870578	264.969937249688	1061.051051867707	257.808240869588	313.810129304310	1086.446371646519	404.529072313668	575.403027947407	1014.811684347144	302.153824237521	640.012283302641	1050.069775221186	207.036718864095	571.726919560496	910.583259542498	43.766933606828	547.668014766551	1084.563701906934	96.795889386184	572.106321105047	998.870985647361	37.424795101485	616.386106550402	1206.221399525609	42.088168394066	590.261011453221	888.732796525434	162.969422283969	361.235191526357	945.766337786717	127.876964678625	275.918064460692	1049.873811241147	151.455787411595	291.430317539381	1140.493600146252	53.138393771393	253.976199472892	949.939771320552	1093.908453117905	215.830743996248	1010.981534918284	842.959222251301	169.079995362117	1115.762062747401	1120.825580960392	822.162579312816	1327.165345130963	984.507071079819	769.799268404865	
